<svg xmlns="http://www.w3.org/2000/svg" viewBox="0 0 512 512" width="512" height="512">
  <!-- Background Circle -->
  <circle cx="256" cy="256" r="256" fill="url(#gradient)"/>
  
  <!-- 3D Printer Bed/Base -->
  <rect x="120" y="320" width="272" height="120" rx="8" fill="#2D3748" opacity="0.9"/>
  <rect x="120" y="320" width="272" height="20" rx="8" fill="#1A202C"/>
  
  <!-- 3D Printed Object (Layered Cube) -->
  <g transform="translate(256, 240)">
    <!-- Shadow -->
    <ellipse cx="0" cy="60" rx="60" ry="20" fill="#000000" opacity="0.2"/>
    
    <!-- Cube layers (bottom to top) -->
    <rect x="-50" y="40" width="100" height="8" fill="#667EEA" opacity="0.9"/>
    <rect x="-50" y="30" width="100" height="8" fill="#667EEA" opacity="0.85"/>
    <rect x="-50" y="20" width="100" height="8" fill="#667EEA" opacity="0.8"/>
    <rect x="-50" y="10" width="100" height="8" fill="#7C3AED" opacity="0.85"/>
    <rect x="-50" y="0" width="100" height="8" fill="#7C3AED" opacity="0.9"/>
    <rect x="-50" y="-10" width="100" height="8" fill="#9333EA" opacity="0.85"/>
    <rect x="-50" y="-20" width="100" height="8" fill="#9333EA" opacity="0.9"/>
    <rect x="-50" y="-30" width="100" height="8" fill="#A855F7" opacity="0.95"/>
    <rect x="-50" y="-40" width="100" height="8" fill="#A855F7"/>
    
    <!-- Top face of cube -->
    <path d="M -50 -40 L 0 -60 L 50 -40 L 0 -20 Z" fill="#C084FC"/>
    
    <!-- Right face of cube -->
    <path d="M 0 -20 L 50 -40 L 50 40 L 0 60 Z" fill="#9333EA" opacity="0.8"/>
  </g>
  
  <!-- Printer Nozzle -->
  <g transform="translate(256, 140)">
    <rect x="-20" y="-60" width="40" height="50" rx="4" fill="#4B5563"/>
    <rect x="-15" y="-65" width="30" height="10" rx="2" fill="#6B7280"/>
    <polygon points="0,0 -12,-10 12,-10" fill="#374151"/>
    <circle cx="0" cy="-5" r="3" fill="#1F2937"/>
    
    <!-- Filament being extruded -->
    <rect x="-2" y="-5" width="4" height="25" fill="url(#filament)"/>
  </g>
  
  <!-- South African Flag Colors (subtle accent) -->
  <g transform="translate(380, 380)">
    <circle cx="0" cy="0" r="25" fill="#FFFFFF" opacity="0.9"/>
    <circle cx="0" cy="-5" r="3" fill="#007A4D"/>
    <circle cx="-5" cy="5" r="3" fill="#FFB612"/>
    <circle cx="5" cy="5" r="3" fill="#DE3831"/>
  </g>
  
  <!-- Gradient Definitions -->
  <defs>
    <linearGradient id="gradient" x1="0%" y1="0%" x2="100%" y2="100%">
      <stop offset="0%" style="stop-color:#667EEA;stop-opacity:1" />
      <stop offset="50%" style="stop-color:#7C3AED;stop-opacity:1" />
      <stop offset="100%" style="stop-color:#EC4899;stop-opacity:1" />
    </linearGradient>
    
    <linearGradient id="filament" x1="0%" y1="0%" x2="0%" y2="100%">
      <stop offset="0%" style="stop-color:#A855F7;stop-opacity:1" />
      <stop offset="100%" style="stop-color:#7C3AED;stop-opacity:0.3" />
    </linearGradient>
  </defs>
</svg>